<?xml version="1.0" encoding="utf-8"?>
<!DOCTYPE svg PUBLIC "-//W3C//DTD SVG 20010904//EN" "http://www.w3.org/TR/2001/REC-SVG-20010904/DTD/svg10.dtd">
<svg version="1.0" xmlns="http://www.w3.org/2000/svg" width="40px" height="40px" viewBox="0 0 779 801" preserveAspectRatio="xMidYMid meet">
 <g fill="#000000">
 </g>
 <g fill="#080808">
  <path d="M420.5 799 c-9.4 -2.5 -13.7 -4.4 -21.9 -9.7 -16.5 -10.7 -28.8 -27.8 -34.6 -48.5 -3.6 -12.4 -3.7 -34.4 -0.4 -46.4 0.5 -1.8 -0.4 -1.6 -8.7 2.4 -18 8.6 -34.9 12.9 -54.9 13.9 -12.8 0.6 -29.6 -0.9 -37.5 -3.5 l-5 -1.7 -1.7 -6.5 c-2.4 -9.4 -2.3 -25.6 0.2 -35.6 4 -15.6 11.4 -27.8 24.3 -40 12.6 -12.1 28.1 -19.7 46.4 -22.9 4.7 -0.8 8.7 -1.5 9 -1.5 0.2 0 -1.3 -1.7 -3.4 -3.7 -2.1 -2.1 -5.5 -5.7 -7.5 -8 l-3.7 -4.1 -7.2 2.4 c-38.3 13 -83.9 -4.7 -108 -41.9 -2.1 -3.2 -3.9 -5.4 -4.2 -5 -0.2 0.4 -1.4 3.9 -2.7 7.6 -1.2 3.8 -5 12.3 -8.4 19.1 l-6.1 12.2 6.3 -2.3 c3.5 -1.3 7 -2.3 7.8 -2.3 0.9 0 -2 4.2 -7.1 10.4 -17.5 21.4 -37.8 51.6 -51.8 77.4 l-5.6 10.3 3.8 -3 c4.5 -3.6 24.8 -24.5 34.6 -35.6 10.7 -12.2 22.3 -26.8 31.3 -39.4 l8.2 -11.4 0 5.6 c0 8.4 -1.9 24.6 -4.4 36.6 -1.7 8.5 -1.9 12.1 -1.3 18.1 0.4 4.1 1.1 19.4 1.5 34 l0.7 26.5 3.2 -8.7 c5 -13.6 6.6 -24.1 6 -39.3 -0.3 -7.1 -0.9 -14 -1.2 -15.2 -2.6 -8.2 10.1 8.6 16.6 22.2 6.6 13.6 8.3 20.6 8.3 33.5 0 8.9 -0.5 11.5 -2.7 17.3 -6.3 16.3 -20.2 32 -39.7 44.9 -12.5 8.3 -24.5 14.6 -25.6 13.5 -0.8 -0.7 1.2 -55.3 2.3 -65.7 l0.6 -5.5 -4.3 5.5 c-10.4 13.2 -28 28.5 -45.3 39.2 -17.7 11.1 -52.4 25.7 -66.9 28.3 l-3.8 0.7 0 -8.8 c0 -21.6 4.8 -51.6 11.5 -72.1 2 -5.9 6.9 -17.5 11 -25.8 7.8 -15.8 15.3 -26.5 27.3 -39.5 l6.9 -7.5 -7.3 -7.8 c-17.5 -18.6 -25.5 -47.3 -20.9 -74.7 2.8 -17.3 8.7 -31.2 18.8 -44.6 l5.3 -7 -13.5 -1.2 c-22 -1.9 -38.2 -6.2 -55.6 -14.9 -15.5 -7.8 -34.4 -21.5 -37.5 -27.4 -1.3 -2.4 3 -17.3 7.6 -26 9.2 -17.5 26.1 -31.9 46.4 -39.5 21.8 -8.2 45.8 -8.4 68.8 -0.5 7 2.4 8.2 2.6 7.7 1.3 -2.6 -6.7 -5.8 -20.4 -7.1 -30.6 -1.9 -13.9 -1.4 -31.6 1.1 -46.1 1.8 -10.1 7.5 -28.2 10.6 -33.4 l2.1 -3.5 -5.6 -4.9 c-20 -17.5 -35.7 -53.3 -40.5 -92.6 -1.8 -13.9 -2.5 -33.1 -1.4 -33.1 1.3 0 30.7 13.7 45.8 21.3 l11 5.5 -5.8 -11.7 c-9.2 -18.6 -15.6 -40.5 -18.9 -65.1 -1.9 -14.7 -1.6 -51.7 0.6 -67.8 1.3 -9.5 2.3 -13.5 3.3 -13.9 2.4 -0.9 30.6 13.7 44.8 23.2 59.7 39.8 88.2 86.9 94.6 155.9 1.6 16.4 0.1 58.7 -2 58.5 -0.3 0 -3.8 -6.6 -7.8 -14.7 -9.4 -19.2 -19 -35.8 -32.8 -56.7 -11.6 -17.5 -28.5 -40.8 -29.2 -40.2 -0.5 0.6 6.2 19.4 12.9 36.2 8.8 21.9 25.6 55.9 33 66.7 7.9 11.4 11.1 16.9 13.8 23.8 1.4 3.6 1.7 5.1 0.8 4.8 -0.7 -0.3 -9 -3.3 -18.4 -6.6 -21.2 -7.6 -43.2 -16.7 -62.9 -26.1 l-15 -7.2 9.5 9.6 c20 20.2 43.3 34.3 67.5 40.7 4.7 1.3 8.5 2.6 8.5 2.9 0 1.4 -27.9 6.9 -35.2 6.9 l-3.7 0 6.7 6.8 c16.1 16 25.6 36.3 28.2 60.3 0.6 5.7 0.8 12.9 0.5 16.1 l-0.7 5.8 8.3 -5.6 c4.6 -3.1 12.9 -7.8 18.4 -10.4 9.7 -4.7 9.9 -4.9 7.2 -5.9 -1.6 -0.6 -3.1 -1.1 -3.4 -1.1 -1.8 0 -12.3 -5.5 -12.3 -6.4 0 -0.6 -0.5 -5.1 -1 -9.9 -5.4 -52 38.8 -99.8 94.8 -102.5 6.1 -0.2 11.2 -0.7 11.2 -0.9 0 -0.3 -2 -2.8 -4.5 -5.5 -10.9 -12.1 -23.3 -34.3 -28.9 -51.3 -7.3 -22.5 -10.5 -51.7 -6.8 -61.3 0.3 -0.8 3.8 -3 7.9 -4.9 27.4 -12.7 59.6 -10.3 87.6 6.4 9.6 5.7 25.4 20.8 31.7 30.2 4.9 7.3 12.7 23.3 13.6 28 0.4 1.7 0.9 3.1 1.3 3 0.3 0 3 -3.8 5.9 -8.3 14.5 -22.3 36.2 -41.6 61.5 -54.2 11 -5.6 25.2 -10.4 30.5 -10.4 3.6 0 4.5 0.6 8.8 5.3 11.1 12.3 18.6 27.2 21.9 43.6 2.3 11.2 1.6 32.2 -1.3 43.3 -6.1 22.8 -20.2 43.9 -38.6 57.8 l-5.7 4.4 9.3 2.6 c18 5.1 30.7 11.2 47.3 22.4 15.8 10.8 35 30.8 41.1 42.8 l2.5 4.9 -3.6 6.6 c-2 3.6 -5.4 8.8 -7.5 11.7 -2.1 2.8 -3.8 5.2 -3.6 5.3 0.1 0.1 4.4 -0.6 9.6 -1.7 35.6 -7.4 78.7 0 119.2 20.2 8.7 4.4 15.8 8.3 15.8 8.8 0 0.4 -3.7 4.3 -8.2 8.6 -43.2 40.6 -92.4 60.1 -140.3 55.4 -13.5 -1.3 -30.6 -4.8 -44 -9 -8.6 -2.8 -8.9 -2.8 -6.4 -0.7 1.4 1.2 8.3 7.1 15.3 13.1 19.5 16.6 37 33.8 35.4 34.8 -2.7 1.7 -20.7 6.9 -31.3 9 -15.2 3 -36.5 3 -48 -0.1 -22.4 -5.9 -36.1 -19.5 -44.9 -44.2 -3.3 -9.2 -7.2 -27.6 -6.4 -30 0.2 -0.6 2.3 1.4 4.6 4.4 9 12 22.7 23.4 36.7 30.4 15.4 7.8 15.4 7.3 -0.3 -8 -13.4 -13.2 -35.2 -36.9 -35.2 -38.3 0 -1.3 15.7 0.7 24.7 3.1 5.1 1.3 12.9 4.1 17.2 6.1 l8 3.6 13.3 -1.7 c26.3 -3.3 60.3 -10.6 81.3 -17.4 l9 -2.9 -20 -0.1 c-28.5 -0.1 -57.7 2.3 -81.5 6.9 -5.2 1 -9.7 1.6 -10 1.3 -0.7 -0.7 8.6 -9 18 -16 4.1 -3.2 7.8 -6 8.2 -6.3 0.4 -0.3 -5.5 -0.6 -13 -0.6 -11.2 -0.1 -15.5 -0.6 -23.4 -2.7 -11.6 -3.1 -24.4 -8.9 -34.2 -15.5 l-7.1 -4.9 -0.1 20.1 c-0.1 22.1 -1.5 31.3 -7.4 49.8 -4 12.3 -14.6 33.6 -21.2 42.3 -6.3 8.3 -7.4 8.6 -20.2 5.6 -32.2 -7.7 -56.9 -33 -66.9 -68.9 -1.8 -6.7 -2.1 -10.3 -2.1 -26.7 0.1 -17.2 0.3 -19.8 2.5 -27.6 l2.5 -8.7 -6.5 2.5 c-3.6 1.4 -9.1 3.2 -12.1 4.1 -3 0.8 -5.7 1.6 -5.8 1.8 -0.2 0.1 0.6 4 1.7 8.5 2.6 10.1 2.8 27.3 0.6 37.9 -7 33.4 -35 62.6 -68.5 71.6 -3.6 1 -6.8 2 -7.3 2.4 -0.4 0.3 2.8 3.4 7.2 6.8 4.3 3.4 10.2 8.7 13 11.7 l5.1 5.4 7.8 -2 c9.4 -2.4 25.7 -2.6 35.9 -0.5 15.1 3.1 29.8 11 41.6 22.5 8.4 8 12.9 14.1 18.3 24.3 l4 7.8 4.3 -8.3 c14.3 -27.6 42.9 -53.4 68.3 -61.8 l6.8 -2.2 5.6 4.9 c14.4 12.3 23.6 30.8 25.9 52.6 l0.6 5.6 6.2 -6.1 c7.3 -7.3 15.6 -11.9 26.4 -14.8 11.2 -3.1 31.7 -3.1 46.8 -0.1 9.4 1.9 29.4 7.8 32.4 9.6 0.8 0.5 -3.6 5 -17.3 17.7 -1.7 1.6 -1.6 1.6 3 0.6 2.7 -0.5 12.8 -1 22.4 -1 15.1 0 19.2 0.3 30 2.6 19.5 4.1 48 14.6 48 17.8 0 1.9 -25.6 26.4 -33.8 32.4 -32.9 23.7 -64 32 -101.4 27 -12.9 -1.7 -28.1 -5.5 -40.5 -10.3 -9.2 -3.4 -11.5 -5.2 -6.9 -5.2 3.5 0 25.5 -4.6 38.1 -8 11.6 -3.1 37.6 -11.7 43.5 -14.5 3.4 -1.5 3.2 -1.6 -7 -1 -22.9 1.4 -51.9 6 -74.5 12 -10.8 2.9 -27 4.6 -26.4 2.7 0.2 -0.5 6 -7.1 12.7 -14.6 10 -11 20.7 -21.4 35.7 -34.8 1.8 -1.6 -6.8 1.8 -15 6 -15.3 7.6 -26.2 16.9 -36.7 31.1 -3.9 5.3 -9.7 12.3 -13 15.7 l-5.9 6 8.3 1.3 c17.3 2.6 36.7 10.5 53.1 21.4 9.9 6.6 26.4 22.2 29.1 27.4 1.5 3 1.5 3.5 -0.5 8.7 -4.9 13.4 -18.1 28.5 -31.6 36.5 -15.2 8.9 -36 13.2 -54.1 11.1 -10.9 -1.3 -25 -5.6 -33.1 -10.1 -2.9 -1.7 -5.5 -2.8 -5.7 -2.6 -0.2 0.2 0 3.5 0.6 7.3 2.4 16.7 0.6 39.2 -4.5 56.9 -3 10.4 -11.9 29.5 -15.9 34.3 -2.6 3 -3.2 3.2 -8.9 3.1 -3.4 0 -9.3 -0.8 -13.2 -1.9z m18.9 -33.9 c8 -15.3 13.6 -37.9 13.6 -55.2 0 -7.5 -2 -22.8 -3.6 -28.1 -0.8 -2.6 0.8 -2.2 5.2 1.3 8.4 6.7 23.8 12.9 37.1 14.9 14.9 2.3 32.3 -0.9 45.8 -8.4 8.5 -4.7 19 -15.1 22.7 -22.5 l2.7 -5.4 -2.1 -3 c-7.1 -10 -20.8 -22.1 -33.9 -30.1 -13.8 -8.3 -26.5 -12.6 -48.4 -16.3 l-5 -0.9 4.5 -2.8 c12.6 -7.9 25 -24.4 30.5 -40.5 7.9 -23.2 4.3 -45.9 -10.1 -63.5 -4.4 -5.4 -4.9 -5.8 -8.1 -5.3 -4.8 0.8 -22.6 9.6 -30 14.8 -16.1 11.4 -29.1 26.3 -37.7 42.8 -2.6 5 -4.9 9.1 -5 9.1 -0.2 0 -1.3 -3 -2.5 -6.7 -3.2 -10.6 -10.3 -21.7 -20 -31.3 -9.7 -9.5 -16.5 -14 -28.4 -18.4 -7.4 -2.7 -9.4 -3 -20.7 -3 -7.8 -0.1 -14.3 0.4 -17.2 1.3 l-4.7 1.3 3 5.2 c4.8 8 9.6 18.6 12.8 28 3.5 10.4 8.8 17.2 28.7 36.6 12.3 12 37.8 34 39.3 34 0.4 0 2.2 -3.7 4.1 -8.2 15.6 -38.7 38.2 -72.5 57.5 -86.3 6.8 -4.9 13.2 -8.2 14.1 -7.2 0.3 0.3 -1.8 3.5 -4.8 7 -16.9 19.8 -32.1 47.1 -45.7 81.6 -3.4 8.5 -6.1 15.5 -6.1 15.6 0 0.2 5.3 0.3 11.8 0.3 23.8 0.1 49.8 7.9 81.6 24.5 12.8 6.7 27.6 15.7 27.6 16.9 0 0.4 -4.7 -1.3 -10.4 -3.7 -19.3 -8.1 -40.2 -13.8 -61.9 -17.1 -13 -1.9 -37.3 -3.3 -46.4 -2.7 l-7.1 0.6 3.3 4.6 c6.1 8.7 10.7 19.8 13.7 33.6 2.2 10.2 1.6 39.6 -1.1 54.8 -2.2 12.8 -7.6 33.5 -9 34.9 -0.4 0.5 -0.5 -6.1 -0.3 -14.5 0.7 -25.8 -3.4 -48 -14.9 -82.2 -3.4 -9.9 -6.3 -18.2 -6.5 -18.4 -0.2 -0.2 -2.6 1.7 -5.5 4.2 -15.8 13.8 -43.4 24.8 -72.9 29.1 -13.2 1.9 -38 3.2 -38 2 0 -0.5 4.7 -1.9 10.4 -3.2 21.7 -4.7 45.8 -14.2 64.4 -25.4 11 -6.7 31.2 -21.4 31.2 -22.7 0 -0.5 -2.1 -2.5 -4.7 -4.5 -18.4 -14.4 -44.7 -41.8 -51.2 -53.4 -0.8 -1.4 -1.4 -1.3 -4.5 0.9 -2 1.3 -3.6 2.9 -3.6 3.6 0 2.2 11.9 17.1 18.5 23.1 l6.5 5.9 -10.3 0.6 c-22.7 1.3 -41.3 9.9 -56.1 25.8 -13.4 14.5 -19.9 34.4 -17 52.1 0.6 3.5 1 3.8 6.8 5.7 15 5 34.4 6.3 51.2 3.6 16.1 -2.6 26.7 -6.6 36.9 -13.9 2.7 -2 5.3 -3.6 5.6 -3.6 0.3 0 -0.5 4.6 -1.8 10.3 -3 13.5 -3.1 29.1 -0.3 40.3 7.1 27.9 27.7 48.7 51.8 52.3 4.7 0.7 4.7 0.7 7.8 -3.6 1.8 -2.4 4.8 -7.4 6.8 -11.2z m-301 -166.8 c26.9 -14.2 52.7 -44.7 58.2 -68.9 0.8 -3.8 1.9 -8.2 2.3 -9.9 l0.8 -3 2.9 4.8 c10.9 18.2 19 27.4 30.9 35.6 14.7 10.2 29.7 15.1 46.5 15.1 15.6 0 28.6 -4.4 41.2 -14 0.9 -0.7 -1.7 -13.9 -4.3 -22 -9.1 -27.8 -26.3 -51.6 -49 -67.6 l-8.4 -5.9 7 -0.8 c3.8 -0.4 11.4 -2.2 16.7 -4.1 29.9 -10.2 51.9 -34.7 56.9 -63.2 2.1 -11.9 -0.9 -31.6 -4.9 -32.8 -0.9 -0.3 -6.4 -1 -12.2 -1.5 -30.1 -2.5 -61.2 6 -86 23.7 -4.6 3.4 -8.6 6 -8.8 5.8 -0.1 -0.2 0.5 -3.7 1.4 -7.7 3.1 -13.9 0.5 -35.3 -6.1 -50.3 -5.7 -13 -16.5 -26.4 -26.9 -33.6 -10.4 -7.1 -24.5 -12 -34.7 -12 l-5.6 0 -4.1 8.8 c-8.4 18 -11.6 33.2 -11.6 54.7 0 17.1 1.3 26 6 39.7 1.3 3.9 2.2 7.3 1.9 7.6 -0.2 0.3 -2.6 -0.9 -5.2 -2.6 -2.6 -1.7 -8.8 -4.4 -13.8 -6.1 -23.8 -7.9 -46.6 -6.3 -67.8 4.6 -12.3 6.3 -23.7 17.4 -29 28.3 -6.1 12.3 -6 12.6 2 19.9 23.2 21.3 56.3 34.1 88.2 34.1 l9.5 0 -6.8 6.9 c-22 22 -31.2 54.4 -23.5 82.3 3.3 11.8 8.3 20.3 17.5 29.6 4.5 4.5 8.9 8.2 9.9 8.2 0.9 0 4.9 -1.7 8.9 -3.7z m317.4 -156.4 c14.4 -16 25.6 -38.7 30.8 -62.9 2.4 -11 2.5 -30 0.1 -38.5 -0.9 -3.2 -1.4 -6.1 -1.2 -6.4 0.3 -0.2 2.4 1 4.8 2.8 21.8 16.6 38.8 23.5 60.2 24.8 28.1 1.6 56.7 -12.1 68.9 -33 l2.9 -4.8 -5.8 -8.5 c-12.8 -18.8 -31.9 -35.5 -52.6 -45.9 -11.9 -6 -19.9 -8.7 -38.4 -13 -2.8 -0.6 -2.7 -0.8 4.9 -5.2 10.1 -5.8 23.2 -18.4 30.1 -28.8 16.1 -24.1 19.8 -52.4 10.1 -76.5 -3.4 -8.3 -11.9 -20 -14.6 -20 -3.4 0 -21.1 6 -29.5 10 -16.5 7.9 -34.7 21.6 -45.7 34.5 -3.2 3.8 -8.7 11.4 -12.1 16.7 -3.4 5.4 -6.4 9.8 -6.7 9.8 -0.3 0 -1 -3 -1.6 -6.7 -4 -24.8 -24.7 -52 -48.9 -64.1 -11.8 -5.9 -19.7 -7.7 -33.5 -7.7 -10.4 0 -13.7 0.4 -19.5 2.3 -10.8 3.5 -10 2 -9.9 19.4 0.1 33.7 10.8 63.1 32.2 88.7 3.5 4.1 6.1 7.6 5.9 7.7 -0.2 0.2 -3 -0.1 -6.3 -0.7 -11.3 -2.2 -30.7 0.5 -45.1 6.2 -32.4 12.8 -54.4 42.9 -53.1 72.9 l0.3 7.5 6.7 2.7 c32.8 13.1 73 12.2 105.7 -2.4 3.5 -1.6 6.6 -2.6 6.9 -2.3 0.3 0.2 -0.9 3.5 -2.6 7.3 -6.8 14.6 -9.7 35.6 -7.3 51.2 1.6 10.3 6.3 23.8 11.3 32.4 4.8 8.3 18.9 22.8 26.3 27.1 5.7 3.3 17 7.4 20.3 7.5 1.3 0 3.6 -1.6 6 -4.1z"/>
  <path d="M144 572.9 c14.5 -22.2 25.3 -46.6 31.6 -71.7 3.3 -12.9 7.3 -36.7 6.4 -37.5 -0.3 -0.2 -5.2 0 -11 0.5 -15.1 1.4 -55.4 0.4 -67 -1.6 -24.1 -4.2 -43.5 -11.9 -53.9 -21.5 -3 -2.8 -5.2 -5.3 -4.9 -5.6 0.3 -0.3 3.9 0.3 7.9 1.4 23.9 6.6 55.2 9 91.4 7.2 13.8 -0.6 26.8 -1.4 29.1 -1.8 l4.1 -0.5 -4.3 -11 c-13.8 -34.9 -20.6 -65.2 -20.7 -92.3 0 -16.8 1.3 -25.8 5.2 -33.2 l1.8 -3.6 0.7 9.4 c2.5 33.6 13 71.7 30.9 112.1 l2.5 5.6 8.1 -7.8 c20.7 -20.2 53.8 -36 98.5 -47.1 21 -5.2 25.5 -5.1 11.6 0.1 -13.7 5.2 -35.8 16.3 -48.8 24.4 -19.3 12.1 -45.8 33.8 -56.2 45.9 -2.8 3.2 -3 3.7 -1.3 3.7 1.1 0 5.5 0.9 9.9 2 26.3 6.7 50.7 27.1 73.4 61.2 8.2 12.4 18.4 31.2 17.8 32.9 -0.2 0.6 -1.8 -1 -3.6 -3.5 -4.6 -6.4 -19.2 -20.9 -28.2 -28.2 -16.1 -12.9 -30.1 -21.7 -55.7 -35.1 -17.7 -9.2 -18.3 -9.3 -18.3 -2.6 0 1.7 -0.6 6.5 -1.4 10.6 -4.5 23.2 -17.7 49.3 -37.3 73.7 -8.1 10.1 -23.5 26 -25.1 26 -0.6 0 2.4 -5.4 6.8 -12.1z"/>
  <path d="M451 427 c0 -0.3 1.1 -6.1 2.4 -13 3.6 -18.5 4.9 -31.5 4.9 -51 -0.1 -23.6 -3.4 -47.3 -9.8 -69.3 l-1.5 -5.4 -11.3 5.7 c-46.1 23.1 -88.9 33.6 -116.8 28.7 -7.9 -1.4 -18.8 -5.1 -17.8 -6.2 0.3 -0.2 5 -1.1 10.6 -1.9 28.2 -4.2 59.8 -15.2 100.2 -34.7 11.3 -5.5 20.7 -10.1 20.9 -10.4 0.2 -0.2 -4.1 -5.3 -9.6 -11.2 -39 -41.9 -60.1 -77.1 -64.2 -107.3 -2 -14.3 -0.7 -14 7.4 1.6 13.7 26.6 31.5 50.1 60 79.2 l17.9 18.3 2.7 -6.8 c1.4 -3.8 4.6 -10.6 7 -15.1 13.4 -25.2 44.9 -57.2 80.1 -81.5 5.3 -3.7 10.2 -6.7 10.8 -6.7 0.6 0 -3.7 4.6 -9.5 10.2 -24.2 23.3 -45 51.9 -60.8 83.7 -6.8 13.5 -13.3 28.8 -12.5 29.5 0.2 0.2 3.3 -0.2 6.9 -1 8.8 -1.8 25.9 -1.8 36.1 0.2 27 5.1 59.2 21.8 88.3 45.8 5.3 4.4 9.6 8.3 9.6 8.8 0 0.5 -3.7 -1.1 -8.2 -3.6 -21.3 -11.5 -47.9 -19.6 -79.3 -24.1 -9.6 -1.3 -46.6 -4.6 -47.2 -4.1 -0.1 0.1 0.7 3.1 1.8 6.6 5.9 19 6.5 50.5 1.5 75.8 -2.9 14.5 -9.7 36.6 -15.2 49.5 -3 7 -5.4 11.3 -5.4 9.7z"/>
 </g>
 <g fill="#101010">
 </g>
 <g fill="#191919">
 </g>
 <g fill="#212121">
 </g>
 <g fill="#292929">
 </g>
 <g fill="#313131">
 </g>
 <g fill="#3a3a3a">
 </g>
 <g fill="#424242">
 </g>
 <g fill="#4a4a4a">
 </g>
 <g fill="#525252">
 </g>
 <g fill="#5a5a5a">
 </g>
 <g fill="#636363">
 </g>
 <g fill="#6b6b6b">
 </g>
 <g fill="#737373">
 </g>
 <g fill="#7b7b7b">
 </g>
 <g fill="#848484">
 </g>
 <g fill="#8c8c8c">
 </g>
 <g fill="#949494">
 </g>
 <g fill="#9c9c9c">
 </g>
 <g fill="#a5a5a5">
 </g>
 <g fill="#adadad">
 </g>
 <g fill="#b5b5b5">
 </g>
 <g fill="#bdbdbd">
 </g>
 <g fill="#c5c5c5">
 </g>
 <g fill="#cecece">
 </g>
 <g fill="#d6d6d6">
 </g>
 <g fill="#dedede">
 </g>
 <g fill="#e6e6e6">
 </g>
 <g fill="#efefef">
 </g>
 <g fill="#f7f7f7">
 </g>
 <g fill="#ffffff">
 </g>
</svg>